# xmcd
#
# Track frame offsets:
#	182
#	15967
#	29277
#	44232
#	56480
#	68110
#	83930
#	98405
#	113627
#	122175
#	133772
#	146297
#	160372
#	174307
#	186202
#	207830
#
# Disc length: 3010 seconds
#
# Revision: 0
# Processed by: cddbd v1.5.2PL0 Copyright (c) Steve Scherf et al.
# Submitted via: audiograbber 1.83.01
#
DISCID=d60bc010
DTITLE=Various Artist - The Selection Team Remembers Stan Coster
DYEAR=1900
DGENRE=Country
TTITLE0=Barry Thornton - The Old Gidgee Tree
TTITLE1=Glenn Jones - The Cunnamulla Feller
TTITLE2=Glenn Jones - Homestead Of My Dreams
TTITLE3=Evelyn Bury - You Can Never Do Wrong In Mothers Eyes
TTITLE4=Evelyn Bury - My People
TTITLE5=Barry Thornton - I'll Be A Drifter Till I die
TTITLE6=Reg Poole - The Battle With The Roan
TTITLE7=Reg Poole - Three Rivers Hotel
TTITLE8=Glenn Jones - Return Of The Stockman
TTITLE9=Glenn Jones - Catching Yellowbelly
TTITLE10=Barry Thornton - Lead Me Down To The Stockyard
TTITLE11=Evelyn Bury - God Will Prevail
TTITLE12=Evelyn Bury - Claypan Boogie
TTITLE13=Reg Poole - The Old Rocking Horse
TTITLE14=Reg Poole - Stan
TTITLE15=Barry Thornton, Glenn Jones, Evelyn Bury and Reg Poole - By A Fire Of Gi
TTITLE15=dgee Coal
EXTD=
EXTT0=
EXTT1=
EXTT2=
EXTT3=
EXTT4=
EXTT5=
EXTT6=
EXTT7=
EXTT8=
EXTT9=
EXTT10=
EXTT11=
EXTT12=
EXTT13=
EXTT14=
EXTT15=
PLAYORDER=
